# xmcd CD database file
#
# Track frame offsets:
#	150
#	14700
#	29550
#	46800
#	63150
#	81225
#	98475
#	112425
#	126150
#	138225
#	150675
#	162675
#	173175
#	185550
#	198675
#	215400
#	226350
#	240150
#	249675
#	265425
#
# Disc length: 3721 seconds
#
# Revision: 1
# Processed by: cddbd v1.5.2PL0 Copyright (c) Steve Scherf et al.
# Submitted via: CDex 1.51
#
DISCID=250e8714
DTITLE=Angela Dimitriou - Mia S' Agapo Mia Se Miso
DYEAR=1987
DGENRE=Merengue
TTITLE0=Den Pisteuo Se Tipota
TTITLE1=Derma Metaksi
TTITLE2=Tha Eimai Dipla Sou
TTITLE3=Auti H Nyxta
TTITLE4=Sou Topa Mia
TTITLE5=Kefi Mou
TTITLE6=Mia S' Agapo Mia Se Miso
TTITLE7=Fotia Sta Sabbatovrada
TTITLE8=Ta Gremises
TTITLE9=Akrovato
TTITLE10=Kai Poia Einai Ekeini
TTITLE11=Ti Sygnomi Sou
TTITLE12=Monaksia
TTITLE13=Ti Allo Na Sou Doso
TTITLE14=Poia Thysia
TTITLE15=Tilefona Pairneis
TTITLE16=Dyo Fones
TTITLE17=Kanonise To
TTITLE18=Oi Xorismenoi
TTITLE19=Me Provlimatizeis
EXTD=YEAR: 1987
EXTT0=
EXTT1=
EXTT2=
EXTT3=
EXTT4=
EXTT5=
EXTT6=
EXTT7=
EXTT8=
EXTT9=
EXTT10=
EXTT11=
EXTT12=
EXTT13=
EXTT14=
EXTT15=
EXTT16=
EXTT17=
EXTT18=
EXTT19=
PLAYORDER=
